<?xml version="1.0" encoding="utf-8"?>
<!-- Generator: Adobe Illustrator 16.0.0, SVG Export Plug-In . SVG Version: 6.00 Build 0)  -->
<!DOCTYPE svg PUBLIC "-//W3C//DTD SVG 1.1//EN" "http://www.w3.org/Graphics/SVG/1.1/DTD/svg11.dtd">
<svg version="1.1" xmlns="http://www.w3.org/2000/svg" xmlns:xlink="http://www.w3.org/1999/xlink" x="0px" y="0px"
	 width="346.637px" height="317.665px" viewBox="0 0 346.637 317.665" enable-background="new 0 0 346.637 317.665"
	 xml:space="preserve">
<g id="Background">
</g>
<g id="Element">
	<g>
		
			<circle fill="none" stroke="#231F20" stroke-width="5.8599" stroke-linejoin="round" stroke-dasharray="10.0837,10.0837" cx="271.434" cy="73.541" r="70.612"/>
	</g>
	<g>
		
			<circle fill="none" stroke="#231F20" stroke-width="5.8599" stroke-linejoin="round" stroke-dasharray="10.3253,10.3253" cx="71.658" cy="105.23" r="65.738"/>
	</g>
	<g>
		<path fill="#FFFFFF" d="M94.625,165.895v-14.117c4.395-0.814,5.979-1.877,8.402-3.17l10.359,9.983c0.947,0.95,2.677,0.95,3.617,0
			l14.396-14.304c0.949-0.947,0.996-2.483,0.047-3.423l-9.959-10.19c1.291-2.417,2.381-4.918,3.189-7.849h14.122
			c1.336,0,2.705-0.679,2.705-2.021v-20.228c0-1.339-1.369-2.655-2.705-2.655h-14.122c-0.809-2.93-1.875-5.107-3.167-7.525
			l9.985-9.93c0.947-0.949,0.947-2.448,0-3.4l-14.31-14.284c-0.944-0.953-2.475-0.945-3.419,0.007l-10.74,9.984
			c-2.424-1.289-4.007-2.351-8.402-3.173V55.484c0-1.336,0.428-2.979-0.914-2.979H73.48c-1.336,0-2.295,1.643-2.295,2.979v14.115
			c-2.93,0.823-5.289,1.889-7.7,3.176l-10.023-9.98c-0.938-0.953-2.497-0.953-3.44,0L35.702,77.096
			c-0.946,0.952-0.95,2.481-0.004,3.428l9.993,9.872c-1.293,2.417-2.368,4.595-3.179,7.525H28.398c-1.341,0-2.627,1.316-2.627,2.655
			v20.228c0,1.342,1.286,2.021,2.627,2.021h14.113c0.812,2.93,1.884,5.431,3.178,7.849l-9.995,10.089
			c-0.946,0.941-0.946,2.528,0,3.477l14.312,14.328c0.944,0.95,2.484,0.963,3.425,0.013l10.054-9.979
			c2.411,1.295,4.77,2.363,7.7,3.178v14.117c0,1.336,0.958,2.343,2.295,2.343h20.23C95.053,168.238,94.625,167.231,94.625,165.895z"
			/>
		<path fill="#D1D3D4" stroke="#231F20" stroke-width="5.8599" stroke-linejoin="round" stroke-miterlimit="10" d="M83.077,129.511
			c-10.023,0-18.148-8.132-18.148-18.152c0-10.023,8.125-18.152,18.148-18.152c10.029,0,18.152,8.129,18.152,18.152
			C101.229,121.379,93.106,129.511,83.077,129.511z"/>
	</g>
	<g>
		<path fill="#3580B1" d="M121.032,173.42c0-33.192-27.457-60.095-60.647-60.095S0,140.228,0,173.42
			c0,26.402,16.982,48.812,40.421,56.879v41.951H81.44V230.3C103.415,222.232,121.032,199.823,121.032,173.42z"/>
		
			<rect x="40.421" y="272.251" fill="#BCBEC0" stroke="#231F20" stroke-width="5.8599" stroke-linejoin="round" stroke-miterlimit="10" width="41.019" height="24.904"/>
		
			<line fill="none" stroke="#231F20" stroke-width="5.8599" stroke-linejoin="round" stroke-miterlimit="10" x1="60.931" y1="272.251" x2="60.931" y2="171.168"/>
		
			<line fill="none" stroke="#231F20" stroke-width="5.8599" stroke-linejoin="round" stroke-miterlimit="10" x1="50.676" y1="171.168" x2="75.581" y2="171.168"/>
		<path fill="none" stroke="#231F20" stroke-width="5.8599" stroke-linejoin="round" stroke-miterlimit="10" d="M33.011,142.723
			c0,0-20.355,14.219-12.597,41.357"/>
	</g>
	<g>
		<path fill="#3580B1" d="M346.637,173.42c0-33.192-27.457-60.095-60.647-60.095s-60.384,26.903-60.384,60.095
			c0,26.402,16.981,48.812,40.421,56.879v41.951h41.02V230.3C329.02,222.232,346.637,199.823,346.637,173.42z"/>
		
			<rect x="266.026" y="272.251" fill="#BCBEC0" stroke="#231F20" stroke-width="5.8599" stroke-linejoin="round" stroke-miterlimit="10" width="41.02" height="24.904"/>
		
			<line fill="none" stroke="#231F20" stroke-width="5.8599" stroke-linejoin="round" stroke-miterlimit="10" x1="286.536" y1="272.251" x2="286.536" y2="171.168"/>
		
			<line fill="none" stroke="#231F20" stroke-width="5.8599" stroke-linejoin="round" stroke-miterlimit="10" x1="276.281" y1="171.168" x2="301.186" y2="171.168"/>
		<path fill="none" stroke="#231F20" stroke-width="5.8599" stroke-linejoin="round" stroke-miterlimit="10" d="M258.616,142.723
			c0,0-20.355,14.219-12.597,41.357"/>
	</g>
	<g>
		<path fill="#FFCB31" d="M270.167,113.806c0-48.812-40.32-88.377-89.13-88.377c-48.812,0-88.763,39.565-88.763,88.377
			c0,38.829,24.326,71.785,59.485,83.649v61.611h60.064v-61.611C244.052,185.591,270.167,152.635,270.167,113.806z"/>
		
			<rect x="151.759" y="259.066" fill="#BCBEC0" stroke="#231F20" stroke-width="5.8599" stroke-linejoin="round" stroke-miterlimit="10" width="60.064" height="36.624"/>
		
			<line fill="none" stroke="#231F20" stroke-width="5.8599" stroke-linejoin="round" stroke-miterlimit="10" x1="182.523" y1="259.066" x2="182.523" y2="111.105"/>
		
			<line fill="none" stroke="#231F20" stroke-width="5.8599" stroke-linejoin="round" stroke-miterlimit="10" x1="166.409" y1="111.105" x2="203.033" y2="111.105"/>
		<path fill="none" stroke="#231F20" stroke-width="5.8599" stroke-linejoin="round" stroke-miterlimit="10" d="M140.839,68.662
			c0,0-29.935,20.912-18.525,60.82"/>
	</g>
	
		<line fill="none" stroke="#231F20" stroke-width="5.8599" stroke-linejoin="round" stroke-miterlimit="10" x1="40.421" y1="285.436" x2="62.396" y2="285.436"/>
	
		<line fill="none" stroke="#231F20" stroke-width="5.8599" stroke-linejoin="round" stroke-miterlimit="10" x1="151.759" y1="278.111" x2="189.848" y2="278.111"/>
	
		<line fill="none" stroke="#231F20" stroke-width="5.8599" stroke-linejoin="round" stroke-miterlimit="10" x1="266.026" y1="285.436" x2="286.536" y2="285.436"/>
	
		<rect x="50.676" y="297.155" fill="#808285" stroke="#231F20" stroke-width="5.8599" stroke-linejoin="round" stroke-miterlimit="10" width="20.509" height="14.65"/>
	
		<rect x="276.281" y="297.155" fill="#808285" stroke="#231F20" stroke-width="5.8599" stroke-linejoin="round" stroke-miterlimit="10" width="20.51" height="14.65"/>
	
		<rect x="169.338" y="295.69" fill="#808285" stroke="#231F20" stroke-width="5.8599" stroke-linejoin="round" stroke-miterlimit="10" width="26.37" height="19.045"/>
	<g>
		<path fill="#FFFFFF" d="M282.141,129.271v-14.118c4.396-0.814,5.979-1.877,8.402-3.17l10.359,9.983c0.947,0.95,2.677,0.95,3.616,0
			l14.396-14.304c0.949-0.947,0.996-2.482,0.048-3.423l-9.959-10.19c1.29-2.418,2.381-4.918,3.189-7.849h14.121
			c1.336,0,2.705-0.68,2.705-2.021V63.952c0-1.339-1.369-2.656-2.705-2.656h-14.121c-0.809-2.93-1.875-5.108-3.167-7.525l9.985-9.93
			c0.946-0.949,0.946-2.447,0-3.4l-14.31-14.285c-0.944-0.952-2.476-0.945-3.419,0.008l-10.74,9.983
			c-2.423-1.288-4.007-2.35-8.402-3.172V18.86c0-1.335,0.428-2.978-0.914-2.978h-20.23c-1.336,0-2.294,1.643-2.294,2.978v14.115
			c-2.93,0.823-5.29,1.888-7.7,3.176l-10.023-9.98c-0.938-0.952-2.496-0.952-3.44,0l-14.321,14.301
			c-0.945,0.951-0.95,2.48-0.004,3.428l9.993,9.871c-1.293,2.417-2.368,4.595-3.179,7.525h-14.113c-1.34,0-2.626,1.317-2.626,2.656
			v20.227c0,1.342,1.286,2.021,2.626,2.021h14.113c0.811,2.93,1.884,5.431,3.177,7.849l-9.994,10.089
			c-0.946,0.94-0.946,2.527,0,3.475l14.312,14.329c0.944,0.95,2.483,0.963,3.425,0.013l10.055-9.979
			c2.41,1.294,4.77,2.363,7.7,3.177v14.118c0,1.336,0.958,2.343,2.294,2.343h20.23C282.568,131.614,282.141,130.607,282.141,129.271
			z"/>
		<path fill="#D1D3D4" stroke="#231F20" stroke-width="5.8599" stroke-linejoin="round" stroke-miterlimit="10" d="M270.593,92.887
			c-10.023,0-18.147-8.131-18.147-18.151c0-10.024,8.125-18.153,18.147-18.153c10.029,0,18.152,8.129,18.152,18.153
			C288.745,84.756,280.622,92.887,270.593,92.887z"/>
	</g>
</g>
</svg>
