<svg xmlns="http://www.w3.org/2000/svg" xmlns:xlink="http://www.w3.org/1999/xlink" version="1.1" id="Background" x="0" y="0" width="428" height="396.85" viewBox="0 0 428 396.85" enable-background="new 0 0 428 396.846" xml:space="preserve">
  <polygon fill="#FFFFFF" points="299.13 117.2 299.13 370.84 82.79 370.84 82.79 73.57 256 73.57 "/>
  <polygon fill="#D1D3D4" points="255 117.47 299.64 117.47 255 73.57 "/>
  <polygon fill="none" stroke="#231F20" stroke-width="4.95" stroke-linejoin="round" stroke-miterlimit="10" points=" 256 73.57 82.79 73.57 82.79 370.84 299.13 370.84 299.13 117.2 "/>
  <polygon fill="#FFFFFF" points="329.92 96.2 329.92 349.84 113.58 349.84 113.58 52.57 286.78 52.57 "/>
  <polygon fill="#D1D3D4" points="285.79 96.47 330.42 96.47 285.79 52.57 "/>
  <polygon fill="none" stroke="#231F20" stroke-width="4.95" stroke-linejoin="round" stroke-miterlimit="10" points=" 286.78 52.57 113.58 52.57 113.58 349.84 329.92 349.84 329.92 96.2 "/>
  <g opacity="0.13">
    <path fill="#F4661E" d="M336.95 197.47h75.21C409.61 89.47 327 0.9 213 0.04V72.06C277 73.75 335.29 126.47 336.95 197.47z"/>
    <path fill="#BCBEC0" d="M336.95 197.47c0.02 0 0.08 0.16 0.08 1.21 0 68.9-55.85 123.77-124.74 123.77 -34.43 0-65.6-14.43-88.17-36.99L72.09 337.23c36.02 36.85 86.24 59.61 141.83 59.61 109.55 0 198.36-86.92 198.36-196.47 0-1.61-0.08-2.91-0.12-2.91L336.95 197.47 336.95 197.47z"/>
    <path fill="#31C0D8" d="M87.54 196.73c0-68.89 54.6-124.75 123.49-124.75 1.08 0 1.97 0.06 1.97 0.07V0.04 0C101 0 15.1 88.81 15.1 198.37c0 53.96 21.8 102.86 56.76 138.62l52.13-52.02C101.4 262.39 87.54 231.19 87.54 196.73z"/>
  </g>
  <circle fill="#F4661E" cx="150.46" cy="88.29" r="23.74"/>
  <line fill="none" stroke="#231F20" stroke-width="5" stroke-linejoin="round" stroke-miterlimit="10" x1="150" y1="81.97" x2="178" y2="81.97"/>
  <line fill="none" stroke="#231F20" stroke-width="5" stroke-linejoin="round" stroke-miterlimit="10" x1="150" y1="95.97" x2="211" y2="95.97"/>
  <line fill="none" stroke="#231F20" stroke-width="5" stroke-linejoin="round" stroke-miterlimit="10" x1="187" y1="81.97" x2="196" y2="81.97"/>
  <line fill="none" stroke="#231F20" stroke-width="5" stroke-linejoin="round" stroke-miterlimit="10" x1="203" y1="81.97" x2="213" y2="81.97"/>
  <line fill="none" stroke="#231F20" stroke-width="5" stroke-linejoin="round" stroke-miterlimit="10" x1="150" y1="139.97" x2="297" y2="139.97"/>
  <line fill="none" stroke="#231F20" stroke-width="5" stroke-linejoin="round" stroke-miterlimit="10" x1="150" y1="162.97" x2="297" y2="162.97"/>
  <line fill="none" stroke="#231F20" stroke-width="5" stroke-linejoin="round" stroke-miterlimit="10" x1="228" y1="185.97" x2="297" y2="185.97"/>
  <line fill="none" stroke="#231F20" stroke-width="5" stroke-linejoin="round" stroke-miterlimit="10" x1="228" y1="208.97" x2="297" y2="208.97"/>
  <line fill="none" stroke="#231F20" stroke-width="5" stroke-linejoin="round" stroke-miterlimit="10" x1="228" y1="232.97" x2="297" y2="232.97"/>
  <line fill="none" stroke="#231F20" stroke-width="5" stroke-linejoin="round" stroke-miterlimit="10" x1="228" y1="255.97" x2="297" y2="255.97"/>
  <line fill="none" stroke="#231F20" stroke-width="5" stroke-linejoin="round" stroke-miterlimit="10" x1="228" y1="278.96" x2="297" y2="278.96"/>
  <line fill="none" stroke="#231F20" stroke-width="5" stroke-linejoin="round" stroke-miterlimit="10" x1="178" y1="301.96" x2="297" y2="301.96"/>
  <rect x="238" y="329.47" fill="#E7E9EA" width="59" height="6"/>
  <rect x="282" y="317.46" fill="#D1D3D4" width="15" height="7"/>
  <rect x="261" y="317.46" fill="#D1D3D4" width="15" height="7"/>
  <line fill="none" stroke="#231F20" stroke-width="5" stroke-linejoin="round" stroke-miterlimit="10" x1="325" y1="52.97" x2="334" y2="52.97"/>
  <line fill="none" stroke="#231F20" stroke-width="5" stroke-linejoin="round" stroke-miterlimit="10" x1="339" y1="52.97" x2="357" y2="52.97"/>
  <line fill="none" stroke="#231F20" stroke-width="5" stroke-linejoin="round" stroke-miterlimit="10" x1="325" y1="63.97" x2="334" y2="63.97"/>
  <line fill="none" stroke="#231F20" stroke-width="5" stroke-linejoin="round" stroke-miterlimit="10" x1="339" y1="63.97" x2="350" y2="63.97"/>
  <line fill="none" stroke="#231F20" stroke-width="5" stroke-linejoin="round" stroke-miterlimit="10" x1="396" y1="230.97" x2="405" y2="230.97"/>
  <line fill="none" stroke="#231F20" stroke-width="5" stroke-linejoin="round" stroke-miterlimit="10" x1="410" y1="230.97" x2="428" y2="230.97"/>
  <line fill="none" stroke="#231F20" stroke-width="5" stroke-linejoin="round" stroke-miterlimit="10" x1="396" y1="242.97" x2="405" y2="242.97"/>
  <line fill="none" stroke="#231F20" stroke-width="5" stroke-linejoin="round" stroke-miterlimit="10" x1="410" y1="242.97" x2="421" y2="242.97"/>
  <line fill="none" stroke="#231F20" stroke-width="5" stroke-linejoin="round" stroke-miterlimit="10" x1="0" y1="313.96" x2="8" y2="313.96"/>
  <line fill="none" stroke="#231F20" stroke-width="5" stroke-linejoin="round" stroke-miterlimit="10" x1="13" y1="313.96" x2="31" y2="313.96"/>
  <line fill="none" stroke="#231F20" stroke-width="5" stroke-linejoin="round" stroke-miterlimit="10" x1="0" y1="324.96" x2="8" y2="324.96"/>
  <line fill="none" stroke="#231F20" stroke-width="5" stroke-linejoin="round" stroke-miterlimit="10" x1="13" y1="324.96" x2="25" y2="324.96"/>
  <line fill="none" stroke="#231F20" stroke-width="5" stroke-linejoin="round" stroke-miterlimit="10" x1="54" y1="162.97" x2="46" y2="162.97"/>
  <line fill="none" stroke="#231F20" stroke-width="5" stroke-linejoin="round" stroke-miterlimit="10" x1="41" y1="162.97" x2="23" y2="162.97"/>
  <line fill="none" stroke="#231F20" stroke-width="5" stroke-linejoin="round" stroke-miterlimit="10" x1="54" y1="151.97" x2="46" y2="151.97"/>
  <line fill="none" stroke="#231F20" stroke-width="5" stroke-linejoin="round" stroke-miterlimit="10" x1="41" y1="151.97" x2="30" y2="151.97"/>
  <polyline fill="none" stroke="#231F20" stroke-width="4.95" stroke-linejoin="round" stroke-miterlimit="10" points=" 149.7 22.43 157.89 30.62 178 10.51 "/>
  <line fill="none" stroke="#231F20" stroke-width="5" stroke-linejoin="round" stroke-miterlimit="10" x1="190" y1="10.97" x2="210" y2="10.97"/>
  <line fill="none" stroke="#231F20" stroke-width="5" stroke-linejoin="round" stroke-miterlimit="10" x1="190" y1="20.97" x2="268" y2="20.97"/>
  <line fill="none" stroke="#231F20" stroke-width="5" stroke-linejoin="round" stroke-miterlimit="10" x1="190" y1="30.97" x2="268" y2="30.97"/>
  <line fill="none" stroke="#231F20" stroke-width="5" stroke-linejoin="round" stroke-miterlimit="10" x1="218" y1="375.97" x2="225" y2="375.97"/>
  <line fill="none" stroke="#231F20" stroke-width="5" stroke-linejoin="round" stroke-miterlimit="10" x1="231" y1="375.97" x2="238" y2="375.97"/>
  <line fill="none" stroke="#231F20" stroke-width="5" stroke-linejoin="round" stroke-miterlimit="10" x1="91" y1="32.97" x2="97" y2="32.97"/>
  <line fill="none" stroke="#231F20" stroke-width="5" stroke-linejoin="round" stroke-miterlimit="10" x1="104" y1="32.97" x2="111" y2="32.97"/>
  <line fill="none" stroke="#231F20" stroke-width="5" stroke-linejoin="round" stroke-miterlimit="10" x1="38" y1="114.97" x2="45" y2="114.97"/>
  <line fill="none" stroke="#231F20" stroke-width="5" stroke-linejoin="round" stroke-miterlimit="10" x1="51" y1="114.97" x2="58" y2="114.97"/>
  <line fill="none" stroke="#231F20" stroke-width="5" stroke-linejoin="round" stroke-miterlimit="10" x1="403" y1="167.97" x2="410" y2="167.97"/>
  <line fill="none" stroke="#231F20" stroke-width="5" stroke-linejoin="round" stroke-miterlimit="10" x1="416" y1="167.97" x2="423" y2="167.97"/>
  <line fill="none" stroke="#231F20" stroke-width="5" stroke-linejoin="round" stroke-miterlimit="10" x1="301" y1="22.97" x2="307" y2="22.97"/>
  <line fill="none" stroke="#231F20" stroke-width="5" stroke-linejoin="round" stroke-miterlimit="10" x1="314" y1="22.97" x2="320" y2="22.97"/>
  <line fill="none" stroke="#231F20" stroke-width="5" stroke-linejoin="round" stroke-miterlimit="10" x1="114" y1="387.97" x2="121" y2="387.97"/>
  <line fill="none" stroke="#231F20" stroke-width="5" stroke-linejoin="round" stroke-miterlimit="10" x1="127" y1="387.97" x2="134" y2="387.97"/>
  <line fill="none" stroke="#231F20" stroke-width="5" stroke-linejoin="round" stroke-miterlimit="10" x1="319" y1="380.97" x2="325" y2="380.97"/>
  <line fill="none" stroke="#231F20" stroke-width="5" stroke-linejoin="round" stroke-miterlimit="10" x1="332" y1="380.97" x2="339" y2="380.97"/>
</svg>
